<?xml version="1.0" encoding="iso-8859-1"?>
<!-- Generator: Adobe Illustrator 21.0.0, SVG Export Plug-In . SVG Version: 6.00 Build 0)  -->
<svg version="1.1" id="Laag_1" xmlns="http://www.w3.org/2000/svg" xmlns:xlink="http://www.w3.org/1999/xlink" x="0px" y="0px"
	 viewBox="0 0 225 135" style="enable-background:new 0 0 225 135;" xml:space="preserve">
<path style="fill:#4B87C6;" d="M172.538,2.585L158.734,8.87c-0.885,0.408-1.701,0.966-2.394,1.661L133.843,33.04l-77.474-9.29
	c-1.402-0.164-2.816,0.313-3.811,1.319l-4.31,4.314c-2.284,2.285-1.578,6.146,1.374,7.465l55.519,24.894L89.202,77.68H61.36
	c-1.224,0-2.397,0.488-3.264,1.344l-2.328,2.339c-2.31,2.314-1.549,6.219,1.443,7.498l19.061,8.166l4.427,1.924l0,0l1.889,4.381
	l8.177,19.082c1.279,2.995,5.195,3.756,7.494,1.442l2.339-2.339c0.871-0.871,1.348-2.04,1.348-3.264V90.41l15.939-15.939
	l24.891,55.532c1.323,2.955,5.184,3.661,7.469,1.374l4.314-4.31c1.006-1.005,1.479-2.408,1.319-3.807l-9.305-77.476l22.512-22.508
	c0.692-0.696,1.25-1.497,1.657-2.394l6.285-13.808C178.346,4.232,175.409,1.281,172.538,2.585z"/>
</svg>
