<?xml version="1.0" encoding="utf-8"?>
<!-- Generator: Adobe Illustrator 21.0.1, SVG Export Plug-In . SVG Version: 6.00 Build 0)  -->
<svg version="1.1" id="Layer_2" xmlns="http://www.w3.org/2000/svg" xmlns:xlink="http://www.w3.org/1999/xlink" x="0px" y="0px"
	 viewBox="0 0 330 140" style="enable-background:new 0 0 330 140;" xml:space="preserve">
<style type="text/css">
	.st0{fill:#4B87C7;}
	.st1{fill:#253562;}
</style>
<g>
	<path class="st0" d="M248.4,10.6l-5.7,2.6c-0.4,0.2-0.7,0.4-1,0.7l-9.2,9.2l-31.7-3.8c-0.6-0.1-1.2,0.1-1.6,0.5l-1.8,1.8
		c-0.9,0.9-0.6,2.5,0.6,3.1l22.7,10.2l-6.5,6.5h-11.4c-0.5,0-1,0.2-1.3,0.6l-1,1c-0.9,0.9-0.6,2.5,0.6,3.1l7.8,3.3l-10.2,10.2
		L194,44.7c-0.2-0.7-0.9-1.2-1.6-1.3c-0.7,0-1.5,0.4-1.8,1.1l-2,4.4l-4.2-25.2c-0.2-0.9-0.9-1.5-1.8-1.5c-0.9,0-1.7,0.7-1.8,1.6
		l-4.5,37.5l-6.9-20.7c-0.3-0.8-1-1.2-1.8-1.2c-0.8,0-1.5,0.5-1.7,1.3l-5,15.8h-13c-1,0-1.8,0.8-1.8,1.8s0.8,1.8,1.8,1.8h14.3
		c0.8,0,1.5-0.5,1.7-1.3l3.7-11.7l7.7,23c0.3,0.7,1,1.2,1.7,1.2c0.1,0,0.1,0,0.2,0c0.8-0.1,1.5-0.8,1.6-1.6l4-33l3.1,18.7
		c0.1,0.8,0.8,1.4,1.6,1.5c0.8,0.1,1.6-0.3,1.9-1.1l2.5-5.6l4.3,13.2c0.2,0.6,0.7,1.1,1.3,1.2c0.6,0.1,1.3,0,1.7-0.5l12.3-12.3
		l3.3,7.8c0.5,1.2,2.1,1.5,3.1,0.6l1-1c0.4-0.4,0.6-0.8,0.6-1.3V46.6l6.5-6.5l10.2,22.7c0.5,1.2,2.1,1.5,3.1,0.6l1.8-1.8
		c0.4-0.4,0.6-1,0.5-1.6l-3.8-31.7l9.2-9.2c0.3-0.3,0.5-0.6,0.7-1l2.6-5.7C250.8,11.3,249.6,10.1,248.4,10.6z"/>
	<g>
		<g>
			<path class="st1" d="M31.4,67.6h37.2l-2.3,11.7H44.8l-1,5.2h17l-2.1,10.7h-17l-2.5,13.1H23.5L31.4,67.6z"/>
			<path class="st1" d="M73.1,67.6h13.4l-7.9,40.7H65.2L73.1,67.6z"/>
			<path class="st1" d="M82.6,117.1l1.9-9.9h0.3c1.1,0.9,2.3,1.5,4.6,1.5c2,0,3.1-0.9,3.9-2.1l-5.9-26.1h13.3l1.8,12.7l6.2-12.7H122
				l-17,28.7c-1.7,2.9-3.6,5.2-5.8,6.7c-2.4,1.6-5.3,2.5-9.5,2.5C85.7,118.4,83.7,117.7,82.6,117.1z"/>
			<path class="st1" d="M145.3,67.6h18.5l7,40.7H155l-0.8-5.9h-15.1l-3.2,5.9h-14.6L145.3,67.6z M144.5,92.6h8.5l-1.6-12.5
				L144.5,92.6z"/>
			<path class="st1" d="M173.8,80.5h13.6l0.2,12.9l5.5-12.9h10.5l0.3,12.9l5.4-12.9h13.1L208,108.3h-12.5L195,95.5l-5.5,12.8H177
				L173.8,80.5z"/>
			<path class="st1" d="M220.5,98.1c0-10.6,5.7-18.4,13.8-18.4c4.2,0,6.2,1.5,7.3,4.1l0.8-3.3h13.3l-3.4,17.4c-0.2,1.2,0,1.8,1,1.8
				c0.6,0,1.1-0.2,1.3-0.4h0.2l-2.6,8.7c-1.1,0.4-2.9,0.9-6,0.9c-4.3,0-6.7-1.9-6.7-5.4c-2.1,3.5-4.8,5.5-9.5,5.5
				C224.8,109,220.5,106,220.5,98.1z M240.3,92.4c0-2-0.3-3.9-2.3-3.9c-2.3,0-3.9,3.3-3.9,7.7c0,2.2,0.5,3.7,2.2,3.7
				C239.1,99.9,240.3,96.4,240.3,92.4z"/>
			<path class="st1" d="M262.2,80.5h13.3l-1.1,5.2c2.2-4.3,5.4-5.9,8.1-5.9c2.4,0,3.3,0.6,3.9,1.4l-4.8,11.5h-0.2
				c-0.6-0.7-1.8-1.5-3.6-1.5c-3.3,0-4.8,2.4-5.3,4.9l-2.4,12.3h-13.4L262.2,80.5z"/>
			<path class="st1" d="M285.7,96c0-9.8,6.8-16.3,17.4-16.3c7.5,0,14.7,3.7,14.7,13c0,1.3-0.2,2.6-0.5,4.1h-18.8
				c0.2,2.5,1.7,3.6,3.8,3.6s3.1-0.9,3.9-2.1l10.7,3c-2.9,5-7.4,7.9-15.2,7.9C292.2,109.3,285.7,104.3,285.7,96z M306.4,91.2
				c0-2.3-1.3-3.4-3.2-3.4c-1.7,0-3.2,1-3.9,3.4H306.4z"/>
		</g>
		<g>
			<path class="st1" d="M114.9,115.9h1.7l-1.9,10.2H113L114.9,115.9z"/>
			<path class="st1" d="M117.9,118.4h1.3c-0.1,0.3-0.1,0.6-0.2,1c0.5-0.7,1.1-1.1,2-1.1c1.3,0,2,0.7,1.6,2.4l-1,5.5h-1.5l0.9-5
				c0.1-0.6,0.1-1.4-0.8-1.4c-0.7,0-1.3,0.4-1.5,1.5l-0.9,5h-1.5L117.9,118.4z"/>
			<path class="st1" d="M124.7,119.8H124l0.3-1.4h0.8l0.1-0.4c0.4-2.1,2.2-2.3,3.1-2.3l-0.2,1.3c-0.5,0-1.2,0.1-1.3,1.1l0,0.3h1.1
				l-0.3,1.4h-1.1l-1.2,6.3h-1.5L124.7,119.8z"/>
			<path class="st1" d="M127.3,122.3c0.4-2.2,1.7-4,3.7-4c2,0,2.6,1.8,2.2,4c-0.4,2.2-1.7,4-3.7,4
				C127.5,126.3,126.9,124.5,127.3,122.3L127.3,122.3z M128.8,122.3c-0.4,1.9,0,2.6,0.9,2.6c0.9,0,1.5-0.7,1.9-2.6
				c0.3-1.9,0-2.6-0.9-2.6C129.8,119.6,129.2,120.3,128.8,122.3L128.8,122.3z"/>
			<path class="st1" d="M135.3,118.4h1.4c-0.1,0.5-0.2,0.9-0.2,1.2c0.5-1.2,1.4-1.4,2.3-1.4l-0.3,1.8c-0.2-0.1-0.4-0.2-0.6-0.2
				c-0.7,0-1.4,0.7-1.6,1.9l-0.8,4.4h-1.5L135.3,118.4z"/>
			<path class="st1" d="M139.6,118.4h1.4c-0.1,0.3-0.1,0.7-0.2,1c0.5-0.9,1.2-1.2,1.9-1.2c0.5,0,0.9,0.1,1.1,0.4
				c0.1,0.2,0.2,0.4,0.3,0.6c0.2-0.3,0.4-0.5,0.7-0.7c0.4-0.2,0.9-0.4,1.4-0.4c0.8,0,1.4,0.4,1.6,0.8c0.2,0.5,0.3,1.1,0.1,1.8
				l-1,5.2h-1.5l0.9-5c0.1-0.4,0.1-0.7,0-1c-0.1-0.3-0.4-0.4-0.7-0.4c-0.3,0-0.6,0.1-0.9,0.3c-0.3,0.2-0.4,0.6-0.5,1l-0.9,5.1h-1.5
				l0.9-5c0.1-0.4,0.1-0.7,0-1c-0.1-0.3-0.4-0.4-0.7-0.4c-0.3,0-0.7,0.1-0.9,0.3c-0.3,0.3-0.4,0.6-0.5,1.1l-0.9,5h-1.5L139.6,118.4z
				"/>
			<path class="st1" d="M154,126.1h-1.4c0.1-0.4,0.1-0.7,0.2-1c-0.5,0.8-1.1,1.2-1.9,1.2c-1.5,0-2.3-1.4-1.8-4c0.5-2.5,1.6-4,3.3-4
				c0.7,0,1.3,0.3,1.5,1.2c0-0.3,0.1-0.7,0.2-1.1h1.4L154,126.1z M150.6,122.3c-0.3,1.7,0,2.5,0.8,2.5c0.5,0,0.7-0.2,1.1-0.5
				c0.3-0.4,0.5-0.9,0.7-2c0.2-1.1,0.3-1.6,0.1-2c-0.2-0.3-0.4-0.5-0.9-0.5C151.5,119.7,150.9,120.5,150.6,122.3L150.6,122.3z"/>
			<path class="st1" d="M157.1,119.8h-0.9l0.3-1.4h0.9l0.3-1.8h1.5l-0.3,1.8h0.9l-0.3,1.4h-0.9l-1.2,6.3h-1.5L157.1,119.8z"/>
			<path class="st1" d="M160.9,118.4h1.5l-1.4,7.7h-1.5L160.9,118.4z M161.4,115.9h1.5l-0.3,1.5h-1.5L161.4,115.9z"/>
			<path class="st1" d="M163.2,122.3c0.4-2.2,1.7-4,3.7-4c2,0,2.6,1.8,2.2,4c-0.4,2.2-1.7,4-3.7,4
				C163.4,126.3,162.8,124.5,163.2,122.3L163.2,122.3z M164.8,122.3c-0.4,1.9,0,2.6,0.9,2.6c0.9,0,1.5-0.7,1.9-2.6
				c0.3-1.9,0-2.6-0.9-2.6C165.8,119.6,165.1,120.3,164.8,122.3L164.8,122.3z"/>
			<path class="st1" d="M171.2,118.4h1.3c-0.1,0.3-0.1,0.6-0.2,1c0.5-0.7,1.1-1.1,2-1.1c1.3,0,2,0.7,1.6,2.4l-1,5.5h-1.5l0.9-5
				c0.1-0.6,0.1-1.4-0.8-1.4c-0.7,0-1.3,0.4-1.5,1.5l-0.9,5h-1.5L171.2,118.4z"/>
			<path class="st1" d="M181.9,118.4h1.5l-1.4,7.7h-1.5L181.9,118.4z M182.4,115.9h1.5l-0.3,1.5h-1.5L182.4,115.9z"/>
			<path class="st1" d="M187.8,120.6c0.1-0.7-0.2-1.1-0.8-1.1c-0.5,0-0.9,0.3-1,0.8c-0.1,0.7,0.6,0.9,1.5,1.2
				c0.8,0.3,1.6,0.8,1.4,2.4c-0.3,1.4-1.5,2.4-3,2.4c-1.5,0-2.4-0.8-2.2-2.6h1.5c-0.1,0.7,0.3,1.2,1,1.2s1.1-0.5,1.1-1
				c0.2-0.8-0.6-1-1.5-1.3c-0.9-0.3-1.6-0.8-1.3-2.3c0.2-1.3,1.3-2.2,2.9-2.2c1.6,0,2.2,0.9,2,2.4H187.8z"/>
			<path class="st1" d="M194.8,119.8h-0.9l0.3-1.4h0.9l0.3-1.8h1.5l-0.3,1.8h0.9l-0.3,1.4h-0.9l-1.2,6.3h-1.5L194.8,119.8z"/>
			<path class="st1" d="M199,115.9h1.5l-0.4,2.4c-0.1,0.3-0.1,0.6-0.2,0.9c0.3-0.6,0.9-0.9,1.8-0.9c0.7,0,1.2,0.2,1.5,0.7
				c0.3,0.4,0.3,1,0.2,1.8l-1,5.4h-1.5l0.9-5c0.1-0.5,0.1-0.8,0-1.1c-0.1-0.3-0.4-0.4-0.7-0.4c-0.3,0-0.6,0.1-1,0.4
				c-0.3,0.2-0.4,0.6-0.5,1.1l-0.9,4.9h-1.5L199,115.9z"/>
			<path class="st1" d="M205.9,122.8c-0.2,1.1,0,2.1,1,2.1c0.6,0,1.2-0.4,1.5-1.2h1.5c-0.3,1-0.9,1.6-1.4,2
				c-0.6,0.4-1.2,0.5-1.8,0.5c-2.1,0-2.6-1.9-2.2-4c0.4-2.3,1.8-4,3.7-4c1,0,1.6,0.4,2,1.2c0.4,1,0.2,2.2,0,3.4H205.9z M208.8,121.5
				c0.2-0.9,0.1-2-0.9-2c-0.8,0-1.5,0.8-1.7,2H208.8z"/>
			<path class="st1" d="M216.3,115.9h1.5l-1.1,5.7l2.5-3.2h1.7l-2.9,3.5l1.6,4.3h-1.6l-1.4-3.7l-0.7,3.7h-1.5L216.3,115.9z"/>
			<path class="st1" d="M222.1,122.8c-0.2,1.1,0,2.1,1,2.1c0.6,0,1.2-0.4,1.5-1.2h1.5c-0.3,1-0.9,1.6-1.4,2
				c-0.6,0.4-1.2,0.5-1.8,0.5c-2.1,0-2.6-1.9-2.2-4c0.4-2.3,1.8-4,3.7-4c1,0,1.6,0.4,2,1.2c0.4,1,0.2,2.2,0,3.4H222.1z M225,121.5
				c0.2-0.9,0.1-2-0.9-2c-0.8,0-1.5,0.8-1.7,2H225z"/>
			<path class="st1" d="M228.3,125.8l-0.8-7.4h1.6l0.4,5.1l2.3-5.1h1.6l-5,10.3h-1.5L228.3,125.8z"/>
			<path class="st1" d="M237.8,119.8h-0.9l0.3-1.4h0.9l0.3-1.8h1.5l-0.3,1.8h0.9l-0.3,1.4h-0.9l-1.2,6.3h-1.5L237.8,119.8z"/>
			<path class="st1" d="M240.3,122.3c0.4-2.2,1.7-4,3.7-4c2,0,2.6,1.8,2.2,4c-0.4,2.2-1.7,4-3.7,4
				C240.5,126.3,239.9,124.5,240.3,122.3L240.3,122.3z M241.9,122.3c-0.4,1.9,0,2.6,0.9,2.6c0.9,0,1.5-0.7,1.9-2.6
				c0.3-1.9,0-2.6-0.9-2.6C242.8,119.6,242.2,120.3,241.9,122.3L241.9,122.3z"/>
			<path class="st1" d="M251.9,125.8l-0.8-7.4h1.6l0.4,5.1l2.3-5.1h1.6l-5,10.3h-1.5L251.9,125.8z"/>
			<path class="st1" d="M256.5,122.3c0.4-2.2,1.7-4,3.7-4c2,0,2.6,1.8,2.2,4c-0.4,2.2-1.7,4-3.7,4
				C256.7,126.3,256.1,124.5,256.5,122.3L256.5,122.3z M258.1,122.3c-0.4,1.9,0,2.6,0.9,2.6c0.9,0,1.5-0.7,1.9-2.6
				c0.3-1.9,0-2.6-0.9-2.6C259.1,119.6,258.4,120.3,258.1,122.3L258.1,122.3z"/>
			<path class="st1" d="M268.3,126.1h-1.4c0.1-0.3,0.1-0.7,0.2-1c-0.4,0.8-1.1,1.2-2,1.2c-1.3,0-2-0.7-1.6-2.4l1-5.5h1.5l-0.9,5
				c-0.1,0.6-0.1,1.4,0.8,1.4c0.7,0,1.3-0.5,1.5-1.5l0.9-5h1.5L268.3,126.1z"/>
			<path class="st1" d="M271.4,118.4h1.4c-0.1,0.5-0.2,0.9-0.2,1.2c0.5-1.2,1.4-1.4,2.3-1.4l-0.3,1.8c-0.2-0.1-0.4-0.2-0.6-0.2
				c-0.7,0-1.4,0.7-1.6,1.9l-0.8,4.4h-1.5L271.4,118.4z"/>
			<path class="st1" d="M279.8,115.9h1.5l-0.4,2.4c-0.1,0.3-0.1,0.6-0.2,0.9c0.3-0.6,0.9-0.9,1.8-0.9c0.7,0,1.2,0.2,1.5,0.7
				c0.3,0.4,0.3,1,0.2,1.8l-1,5.4h-1.5l0.9-5c0.1-0.5,0.1-0.8,0-1.1c-0.1-0.3-0.4-0.4-0.7-0.4c-0.3,0-0.6,0.1-1,0.4
				c-0.3,0.2-0.4,0.6-0.5,1.1l-0.9,4.9h-1.5L279.8,115.9z"/>
			<path class="st1" d="M286.7,122.8c-0.2,1.1,0,2.1,1,2.1c0.6,0,1.2-0.4,1.5-1.2h1.5c-0.3,1-0.9,1.6-1.4,2
				c-0.6,0.4-1.2,0.5-1.8,0.5c-2.1,0-2.6-1.9-2.2-4c0.4-2.3,1.8-4,3.7-4c1,0,1.6,0.4,2,1.2c0.4,1,0.2,2.2,0,3.4H286.7z M289.6,121.5
				c0.2-0.9,0.1-2-0.9-2c-0.8,0-1.5,0.8-1.7,2H289.6z"/>
			<path class="st1" d="M296.8,126.1h-1.4c0.1-0.4,0.1-0.7,0.2-1c-0.5,0.8-1.1,1.2-1.9,1.2c-1.5,0-2.3-1.4-1.8-4
				c0.5-2.5,1.6-4,3.3-4c0.7,0,1.3,0.3,1.5,1.2c0-0.3,0.1-0.7,0.2-1.1h1.4L296.8,126.1z M293.4,122.3c-0.3,1.7,0,2.5,0.8,2.5
				c0.5,0,0.7-0.2,1.1-0.5c0.3-0.4,0.5-0.9,0.7-2c0.2-1.1,0.3-1.6,0.1-2c-0.2-0.3-0.4-0.5-0.9-0.5
				C294.4,119.7,293.8,120.5,293.4,122.3L293.4,122.3z"/>
			<path class="st1" d="M300.6,115.9h1.5l-1.9,10.2h-1.5L300.6,115.9z"/>
			<path class="st1" d="M303.4,119.8h-0.9l0.3-1.4h0.9l0.3-1.8h1.5l-0.3,1.8h0.9l-0.3,1.4h-0.9l-1.2,6.3h-1.5L303.4,119.8z"/>
			<path class="st1" d="M307.6,115.9h1.5l-0.4,2.4c-0.1,0.3-0.1,0.6-0.2,0.9c0.3-0.6,0.9-0.9,1.8-0.9c0.7,0,1.2,0.2,1.5,0.7
				c0.3,0.4,0.3,1,0.2,1.8l-1,5.4h-1.5l0.9-5c0.1-0.5,0.1-0.8,0-1.1c-0.1-0.3-0.4-0.4-0.7-0.4c-0.3,0-0.6,0.1-1,0.4
				c-0.3,0.2-0.4,0.6-0.5,1.1l-0.9,4.9h-1.5L307.6,115.9z"/>
		</g>
	</g>
</g>
</svg>
