<svg id="Layer_2" data-name="Layer 2" xmlns="http://www.w3.org/2000/svg" viewBox="0 0 198.97 13.02"><defs><style>.cls-1{fill:#253562;}</style></defs><title>logo-information-is-key</title><path class="cls-1" d="M17.72,66.16h1.69L17.51,76.4H15.82Z" transform="translate(-15.82 -65.98)"/><path class="cls-1" d="M20.69,68.66H22c-.07.32-.12.62-.19,1a2.24,2.24,0,0,1,2-1.12c1.27,0,2,.71,1.65,2.39l-1,5.51H23l.93-5c.12-.62.14-1.38-.77-1.38-.72,0-1.29.44-1.48,1.45l-.91,5h-1.5Z" transform="translate(-15.82 -65.98)"/><path class="cls-1" d="M27.51,70.07h-.77L27,68.66h.78l.07-.41A2.76,2.76,0,0,1,30.9,66l-.25,1.3a1.22,1.22,0,0,0-1.34,1.12l0,.26H30.4l-.26,1.41H29L27.83,76.4h-1.5Z" transform="translate(-15.82 -65.98)"/><path class="cls-1" d="M30,72.52c.42-2.21,1.69-4,3.74-4s2.64,1.81,2.23,4-1.69,4-3.72,4-2.66-1.81-2.24-4Zm1.58,0c-.36,1.9,0,2.62.93,2.62s1.52-.72,1.88-2.63,0-2.63-.94-2.63-1.52.71-1.87,2.63Z" transform="translate(-15.82 -65.98)"/><path class="cls-1" d="M38,68.66H39.4c-.1.47-.17.86-.25,1.25a2.22,2.22,0,0,1,2.27-1.41l-.33,1.81a1,1,0,0,0-.61-.18c-.68,0-1.36.66-1.58,1.9l-.82,4.37h-1.5Z" transform="translate(-15.82 -65.98)"/><path class="cls-1" d="M42.4,68.66h1.43c-.07.35-.12.68-.21,1a2,2,0,0,1,1.94-1.2,1.42,1.42,0,0,1,1.12.42,1.28,1.28,0,0,1,.28.65,2,2,0,0,1,.68-.69A2.82,2.82,0,0,1,49,68.5a1.7,1.7,0,0,1,1.62.84,2.94,2.94,0,0,1,.14,1.83l-1,5.23H48.33l.93-5a1.75,1.75,0,0,0,0-1,.7.7,0,0,0-.75-.43,1.26,1.26,0,0,0-.94.33,1.82,1.82,0,0,0-.48,1l-.94,5.05H44.64l.93-5a1.78,1.78,0,0,0,0-1c-.08-.29-.36-.43-.73-.43a1.27,1.27,0,0,0-.93.32,1.93,1.93,0,0,0-.51,1.05l-.93,5H41Z" transform="translate(-15.82 -65.98)"/><path class="cls-1" d="M56.73,76.4H55.36c.08-.41.14-.72.21-1a2.2,2.2,0,0,1-1.92,1.18c-1.45,0-2.26-1.38-1.76-4s1.65-4,3.25-4a1.36,1.36,0,0,1,1.48,1.22,10.61,10.61,0,0,1,.18-1.05h1.37Zm-3.35-3.85c-.32,1.72,0,2.53.83,2.53a1.28,1.28,0,0,0,1.05-.54,3.81,3.81,0,0,0,.69-2c.21-1.15.26-1.65.06-2a.86.86,0,0,0-.86-.53c-.83,0-1.45.8-1.77,2.55Z" transform="translate(-15.82 -65.98)"/><path class="cls-1" d="M59.86,70.07h-.93l.26-1.41h.93l.33-1.84h1.49l-.33,1.84h.91l-.26,1.41h-.91L60.18,76.4H58.68Z" transform="translate(-15.82 -65.98)"/><path class="cls-1" d="M63.72,68.66h1.5L63.78,76.4h-1.5Zm.46-2.5h1.49l-.28,1.48H63.9Z" transform="translate(-15.82 -65.98)"/><path class="cls-1" d="M66,72.52c.42-2.21,1.69-4,3.74-4s2.64,1.81,2.23,4-1.69,4-3.72,4-2.66-1.81-2.24-4Zm1.58,0c-.36,1.9,0,2.62.93,2.62s1.52-.72,1.88-2.63,0-2.63-.94-2.63-1.52.71-1.87,2.63Z" transform="translate(-15.82 -65.98)"/><path class="cls-1" d="M74,68.66h1.32c-.07.32-.13.62-.19,1a2.24,2.24,0,0,1,2-1.12c1.27,0,2,.71,1.65,2.39l-1,5.51h-1.5l.93-5c.12-.62.14-1.38-.78-1.38-.72,0-1.29.44-1.48,1.45l-.91,5h-1.5Z" transform="translate(-15.82 -65.98)"/><path class="cls-1" d="M84.68,68.66h1.5L84.74,76.4h-1.5Zm.46-2.5h1.49l-.28,1.48h-1.5Z" transform="translate(-15.82 -65.98)"/><path class="cls-1" d="M90.61,70.85c.12-.73-.17-1.05-.79-1.05a1,1,0,0,0-1,.8c-.14.75.65.89,1.49,1.16a1.82,1.82,0,0,1,1.36,2.35,3.06,3.06,0,0,1-3,2.45A2,2,0,0,1,86.47,74H88a.94.94,0,0,0,1,1.2,1.12,1.12,0,0,0,1.15-1c.15-.78-.62-1-1.49-1.26a1.78,1.78,0,0,1-1.34-2.3,2.71,2.71,0,0,1,2.87-2.16c1.56,0,2.17.87,2,2.35Z" transform="translate(-15.82 -65.98)"/><path class="cls-1" d="M97.61,70.07h-.93l.26-1.41h.93l.33-1.84H99.7l-.33,1.84h.91L100,70.07h-.91L97.93,76.4H96.44Z" transform="translate(-15.82 -65.98)"/><path class="cls-1" d="M101.77,66.16h1.49l-.44,2.38c-.06.3-.11.58-.18.9a1.93,1.93,0,0,1,1.83-.94,1.6,1.6,0,0,1,1.45.65,2.48,2.48,0,0,1,.19,1.83l-1,5.43h-1.5l.93-5a1.74,1.74,0,0,0,0-1.05.72.72,0,0,0-.72-.37,1.28,1.28,0,0,0-1,.36,1.82,1.82,0,0,0-.54,1.13l-.91,4.91h-1.5Z" transform="translate(-15.82 -65.98)"/><path class="cls-1" d="M108.67,73.05c-.21,1.08,0,2.12,1,2.12A1.61,1.61,0,0,0,111.11,74h1.48a4,4,0,0,1-1.43,2,3.21,3.21,0,0,1-1.77.54c-2.06,0-2.63-1.88-2.23-4,.42-2.3,1.76-4,3.71-4a2,2,0,0,1,2,1.18,6,6,0,0,1,0,3.38Zm2.91-1.29c.15-.89.06-2-.94-2-.82,0-1.49.76-1.73,2Z" transform="translate(-15.82 -65.98)"/><path class="cls-1" d="M119,66.16h1.5l-1.07,5.74L122,68.66h1.69l-2.89,3.47,1.55,4.26h-1.62l-1.37-3.68-.68,3.68h-1.49Z" transform="translate(-15.82 -65.98)"/><path class="cls-1" d="M124.84,73.05c-.21,1.08,0,2.12,1,2.12A1.61,1.61,0,0,0,127.28,74h1.48a4,4,0,0,1-1.43,2,3.21,3.21,0,0,1-1.77.54c-2.06,0-2.63-1.88-2.23-4,.42-2.3,1.76-4,3.71-4a2,2,0,0,1,2,1.18,6,6,0,0,1,0,3.38Zm2.91-1.29c.15-.89.06-2-.94-2-.82,0-1.49.76-1.73,2Z" transform="translate(-15.82 -65.98)"/><path class="cls-1" d="M131,76l-.77-7.38h1.56l.39,5.11,2.28-5.11h1.56l-5,10.34h-1.52Z" transform="translate(-15.82 -65.98)"/><path class="cls-1" d="M140.61,70.07h-.93l.26-1.41h.93l.33-1.84h1.49l-.33,1.84h.91L143,70.07h-.91l-1.18,6.32h-1.49Z" transform="translate(-15.82 -65.98)"/><path class="cls-1" d="M143,72.52c.42-2.21,1.69-4,3.74-4s2.64,1.81,2.23,4-1.69,4-3.72,4-2.66-1.81-2.24-4Zm1.58,0c-.36,1.9,0,2.62.93,2.62s1.52-.72,1.88-2.63,0-2.63-.94-2.63-1.52.71-1.87,2.63Z" transform="translate(-15.82 -65.98)"/><path class="cls-1" d="M154.68,76l-.77-7.38h1.56l.39,5.11,2.28-5.11h1.56l-5,10.34h-1.52Z" transform="translate(-15.82 -65.98)"/><path class="cls-1" d="M159.26,72.52c.42-2.21,1.69-4,3.74-4s2.64,1.81,2.23,4-1.69,4-3.72,4-2.66-1.81-2.24-4Zm1.58,0c-.36,1.9,0,2.62.93,2.62s1.52-.72,1.88-2.63,0-2.63-.94-2.63-1.52.71-1.87,2.63Z" transform="translate(-15.82 -65.98)"/><path class="cls-1" d="M171,76.4h-1.37c.05-.33.12-.66.21-1a2.08,2.08,0,0,1-2,1.19c-1.26,0-2-.71-1.63-2.39l1-5.51h1.5l-.94,5c-.11.62-.12,1.4.79,1.4.71,0,1.29-.46,1.47-1.47l.93-5h1.5Z" transform="translate(-15.82 -65.98)"/><path class="cls-1" d="M174.16,68.66h1.37c-.1.47-.17.86-.25,1.25a2.22,2.22,0,0,1,2.27-1.41l-.33,1.81a1,1,0,0,0-.61-.18c-.68,0-1.36.66-1.58,1.9l-.82,4.37h-1.5Z" transform="translate(-15.82 -65.98)"/><path class="cls-1" d="M182.59,66.16h1.49l-.44,2.38c-.06.3-.11.58-.18.9a1.93,1.93,0,0,1,1.83-.94,1.6,1.6,0,0,1,1.45.65,2.48,2.48,0,0,1,.19,1.83l-1,5.43h-1.5l.93-5a1.74,1.74,0,0,0,0-1.05.72.72,0,0,0-.72-.37,1.28,1.28,0,0,0-1,.36,1.82,1.82,0,0,0-.54,1.13l-.91,4.91h-1.5Z" transform="translate(-15.82 -65.98)"/><path class="cls-1" d="M189.5,73.05c-.21,1.08,0,2.12,1,2.12A1.61,1.61,0,0,0,191.93,74h1.48A4,4,0,0,1,192,76a3.21,3.21,0,0,1-1.77.54c-2.06,0-2.63-1.88-2.23-4,.42-2.3,1.76-4,3.71-4a2,2,0,0,1,2,1.18,6,6,0,0,1,0,3.38Zm2.91-1.29c.15-.89.06-2-.94-2-.82,0-1.49.76-1.73,2Z" transform="translate(-15.82 -65.98)"/><path class="cls-1" d="M199.57,76.4H198.2c.08-.41.14-.72.21-1a2.2,2.2,0,0,1-1.92,1.18c-1.45,0-2.26-1.38-1.76-4s1.65-4,3.25-4a1.36,1.36,0,0,1,1.48,1.22,10.61,10.61,0,0,1,.18-1.05H201Zm-3.35-3.85c-.32,1.72,0,2.53.83,2.53a1.28,1.28,0,0,0,1.05-.54,3.81,3.81,0,0,0,.69-2c.21-1.15.26-1.65.06-2A.86.86,0,0,0,198,70c-.83,0-1.45.8-1.77,2.55Z" transform="translate(-15.82 -65.98)"/><path class="cls-1" d="M203.33,66.16h1.49l-1.9,10.24h-1.5Z" transform="translate(-15.82 -65.98)"/><path class="cls-1" d="M206.22,70.07h-.93l.26-1.41h.93l.33-1.84h1.49L208,68.66h.91l-.26,1.41h-.91l-1.18,6.32H205Z" transform="translate(-15.82 -65.98)"/><path class="cls-1" d="M210.37,66.16h1.49l-.44,2.38c-.06.3-.11.58-.18.9a1.93,1.93,0,0,1,1.83-.94,1.6,1.6,0,0,1,1.45.65,2.48,2.48,0,0,1,.19,1.83l-1,5.43h-1.5l.93-5a1.74,1.74,0,0,0,0-1.05.72.72,0,0,0-.72-.37,1.28,1.28,0,0,0-1,.36,1.82,1.82,0,0,0-.54,1.13L210,76.4h-1.5Z" transform="translate(-15.82 -65.98)"/></svg>