<?xml version="1.0" encoding="iso-8859-1"?>
<!-- Generator: Adobe Illustrator 21.0.0, SVG Export Plug-In . SVG Version: 6.00 Build 0)  -->
<svg version="1.1" id="Laag_1" xmlns="http://www.w3.org/2000/svg" xmlns:xlink="http://www.w3.org/1999/xlink" x="0px" y="0px"
	 viewBox="0 0 225 135" style="enable-background:new 0 0 225 135;" xml:space="preserve">
<path style="fill:#4B87C6;" d="M191.406,78.049c-2.834-2.925-5.685-0.918-5.685-0.918L164.35,98.552l-11.86-36.156
	c-0.574-1.749-2.16-2.966-3.998-3.066c-1.811-0.102-3.547,0.936-4.307,2.613l-4.923,10.852l-10.38-61.633
	c-0.368-2.187-2.304-3.657-4.504-3.722c-2.217,0.053-4.061,1.726-4.326,3.928l-11.045,91.574L92.039,52.451
	c-0.618-1.834-2.37-3.026-4.277-3.041c-1.933,0.019-3.634,1.281-4.212,3.127L71.449,91.088H39.78c-2.465,0-4.463,1.997-4.463,4.462
	s1.997,4.463,4.463,4.463h34.945c1.95,0,3.674-1.266,4.258-3.127l8.968-28.573l18.886,56.206c0.616,1.832,2.331,3.041,4.229,3.041
	c0.152,0,0.303-0.008,0.457-0.023c2.075-0.212,3.725-1.834,3.975-3.905l9.713-80.517l7.676,45.576
	c0.326,1.937,1.878,3.432,3.824,3.684c1.933,0.273,3.831-0.794,4.641-2.581l6.227-13.727l10.554,32.175
	c0.483,1.474,1.698,2.592,3.208,2.95c1.503,0.358,3.094-0.091,4.191-1.19l25.872-25.932
	C191.406,84.069,194.155,80.888,191.406,78.049z"/>
</svg>
