<?xml version="1.0" standalone="no"?>
<!DOCTYPE svg PUBLIC "-//W3C//DTD SVG 20010904//EN"
 "http://www.w3.org/TR/2001/REC-SVG-20010904/DTD/svg10.dtd">
<svg version="1.0" xmlns="http://www.w3.org/2000/svg"
 width="270.000000pt" height="270.000000pt" viewBox="0 0 270.000000 270.000000"
 preserveAspectRatio="xMidYMid meet">
<metadata>
Created by potrace 1.11, written by Peter Selinger 2001-2013
</metadata>
<g transform="translate(0.000000,270.000000) scale(0.100000,-0.100000)"
fill="#000000" stroke="none">
<path d="M2470 2050 c-8 -5 -40 -21 -72 -36 -41 -19 -86 -55 -172 -141 -83
-82 -120 -113 -133 -109 -10 2 -45 7 -78 10 -69 7 -107 11 -265 31 -63 8 -140
17 -170 21 -30 3 -66 8 -80 9 -144 19 -156 18 -184 -11 -66 -70 -57 -82 119
-159 135 -60 215 -96 323 -146 35 -16 68 -29 74 -29 6 0 -26 -36 -70 -80 l-80
-80 -144 0 c-138 0 -145 -1 -166 -23 -28 -30 -28 -63 1 -80 12 -8 59 -29 104
-48 l82 -34 -116 -117 c-65 -65 -120 -114 -124 -110 -4 4 -30 79 -59 166 -63
196 -64 198 -98 194 -22 -2 -32 -14 -51 -55 -14 -29 -28 -53 -31 -53 -4 0 -14
48 -24 108 -9 59 -25 159 -36 222 -11 63 -22 133 -25 155 -15 107 -24 125 -61
125 -30 0 -40 -20 -48 -95 -4 -33 -9 -73 -12 -90 -8 -62 -35 -292 -39 -330 -3
-35 -9 -79 -20 -165 -2 -14 -7 -54 -11 -90 -3 -36 -8 -72 -9 -80 -2 -8 -4 -24
-4 -35 -1 -31 -16 -5 -39 70 -11 39 -46 142 -76 230 -44 131 -59 163 -80 175
-23 13 -27 13 -40 0 -7 -8 -40 -99 -72 -202 -50 -164 -60 -188 -78 -189 -12 0
-82 -1 -156 -1 -74 0 -143 -5 -152 -10 -21 -10 -24 -48 -6 -66 17 -17 368 -17
390 1 8 6 32 66 52 132 20 66 40 128 44 138 5 12 34 -62 91 -230 46 -136 89
-262 96 -279 15 -37 48 -49 68 -25 14 14 33 137 52 326 4 33 8 67 10 75 2 8 7
47 11 85 3 39 8 72 9 75 2 3 6 37 10 75 17 181 17 180 81 -215 11 -64 17 -81
34 -90 31 -16 47 -2 81 71 18 38 36 66 40 62 4 -5 28 -73 54 -153 43 -133 62
-170 89 -170 5 0 78 68 162 151 l153 152 20 -44 c10 -24 31 -69 44 -100 28
-63 49 -77 83 -54 37 24 41 42 42 189 l1 139 68 68 c37 38 73 68 78 69 6 0 64
-119 129 -264 65 -145 123 -269 129 -275 6 -6 18 -11 26 -11 36 1 93 72 87
106 -4 20 -8 51 -21 164 -3 25 -7 59 -9 75 -2 17 -7 59 -11 95 -4 36 -9 73
-11 83 -2 10 -6 45 -9 78 -4 33 -8 68 -10 77 -1 9 -6 49 -10 89 l-7 72 115
116 c100 101 119 126 148 192 25 57 30 79 22 92 -12 19 -33 24 -53 11z"/>
</g>
</svg>
